<svg width="60" height="60" viewBox="0 0 60 60" fill="none" xmlns="http://www.w3.org/2000/svg">
<circle cx="30" cy="30" r="30" fill="white"/>
<path d="M47 14.897C48.0609 14.897 49.0783 15.2482 49.8284 15.8733C50.5786 16.4984 51 17.3463 51 18.2303V38.2303C51 39.1144 50.5786 39.9622 49.8284 40.5873C49.0783 41.2124 48.0609 41.5636 47 41.5636H15C13.9391 41.5636 12.9217 41.2124 12.1716 40.5873C11.4214 39.9622 11 39.1144 11 38.2303V18.2303C11 16.397 12.8 14.897 15 14.897H47ZM38.26 30.0636L51 38.2303V34.897L40.76 28.397L51 21.5636V18.2303L31 31.5636L11 18.2303V21.5636L21.24 28.397L11 34.897V38.2303L23.74 30.0636L31 34.897L38.26 30.0636Z" fill="black"/>
</svg>
