<svg width="60" height="60" viewBox="0 0 60 60" fill="none" xmlns="http://www.w3.org/2000/svg">
<circle cx="30" cy="30" r="30" fill="white"/>
<path d="M22.5792 44.3333C37.6736 44.3333 45.9296 33.8165 45.9296 24.6963C45.9296 24.3976 45.9296 24.1002 45.9056 23.8042C47.5117 22.8272 48.8982 21.6175 50 20.2318C48.5022 20.7899 46.9133 21.1559 45.2864 21.3176C46.9996 20.4551 48.2818 19.0985 48.8944 17.5003C47.2835 18.3042 45.521 18.8707 43.6832 19.1755C42.4459 18.069 40.8094 17.3363 39.027 17.0908C37.2446 16.8453 35.4157 17.1007 33.8233 17.8174C32.2309 18.5341 30.9637 19.6722 30.2179 21.0556C29.4721 22.4389 29.2892 23.9904 29.6976 25.47C26.4348 25.3324 23.2429 24.6194 20.329 23.3771C17.4152 22.1348 14.8445 20.3911 12.784 18.2592C11.7345 19.7785 11.4131 21.5771 11.8852 23.2888C12.3572 25.0004 13.5872 26.4964 15.3248 27.4722C14.0188 27.4396 12.7412 27.1434 11.6 26.6083C11.6 26.6366 11.6 26.6662 11.6 26.6958C11.6005 28.2892 12.2564 29.8335 13.4565 31.0666C14.6565 32.2997 16.3268 33.1457 18.184 33.4613C16.9758 33.7384 15.7081 33.7789 14.4784 33.5797C15.0028 34.951 16.0238 36.1502 17.3985 37.0096C18.7732 37.869 20.433 38.3455 22.1456 38.3725C19.2396 40.2932 15.6497 41.3359 11.9536 41.3328C11.3006 41.3317 10.6483 41.2985 10 41.2332C13.753 43.2586 18.1199 44.333 22.5792 44.328" fill="#00A2FA"/>
</svg>
